<?xml version="1.0" encoding="UTF-8" standalone="no"?>
<svg
   xmlns:dc="http://purl.org/dc/elements/1.1/"
   xmlns:cc="http://creativecommons.org/ns#"
   xmlns:rdf="http://www.w3.org/1999/02/22-rdf-syntax-ns#"
   xmlns:svg="http://www.w3.org/2000/svg"
   xmlns="http://www.w3.org/2000/svg"
   width="10mm"
   height="10mm"
   viewBox="0 0 35.433071 35.43307"
   id="svg4164"
   version="1.1">
  <defs
     id="defs4166" />
  <metadata
     id="metadata4169">
    <rdf:RDF>
      <cc:Work
         rdf:about="">
        <dc:format>image/svg+xml</dc:format>
        <dc:type
           rdf:resource="http://purl.org/dc/dcmitype/StillImage" />
        <dc:title></dc:title>
      </cc:Work>
    </rdf:RDF>
  </metadata>
  <path
     id="path4267"
     d="m 6.9330719,31.970631 0,-3.014707 -0.4744561,-0.371641 C 5.4350474,27.782524 4.078606,26.296739 3.3336888,25.161377 3.1681884,24.909131 3.0154481,24.688242 2.994266,24.670513 2.9730839,24.652785 2.8097658,24.36268 2.6313368,24.025837 2.452908,23.688993 2.260676,23.326363 2.2041548,23.219991 2.1476336,23.113619 2.0599488,22.925052 2.0092997,22.800951 1.9586506,22.676851 1.8422112,22.411074 1.7505455,22.210334 1.6588797,22.009595 1.5093512,21.574438 1.4182599,21.243319 1.3271685,20.912201 1.2280765,20.59541 1.1980554,20.53934 1.1285007,20.409434 0.88087294,19.189743 0.79441604,18.551214 c -0.09553,-0.705539 -0.1359274,-3.297544 -0.0526908,-3.38078 0.0368059,-0.03681 0.0678563,-0.198918 0.069001,-0.360248 0.004684,-0.660094 0.52011146,-2.786421 0.86808806,-3.581178 0.093147,-0.212744 0.2036461,-0.473838 0.2455525,-0.580209 0.041906,-0.106372 0.2466798,-0.526274 0.4550519,-0.9331152 1.0764982,-2.1018363 2.6547314,-3.9535375 4.6197281,-5.4202107 1.273903,-0.9508412 2.213547,-1.5097386 3.3507112,-1.9929946 0.265929,-0.1130108 0.570539,-0.2445364 0.67691,-0.2922793 0.695599,-0.3122059 2.634404,-0.8525408 3.739124,-1.04207476 0.937521,-0.16084776 4.800101,-0.16084776 5.737621,0 0.672221,0.11533106 2.09777,0.45557726 2.320836,0.55393076 0.07091,0.031267 0.346514,0.1222967 0.612443,0.2022874 0.265929,0.079991 0.599549,0.1964886 0.741378,0.2588842 0.141829,0.062396 0.504459,0.2192602 0.805845,0.3485879 2.765024,1.1864987 5.424278,3.4345517 7.114511,6.0143931 0.382256,0.5834458 1.069014,1.8520442 1.246513,2.3025912 0.04191,0.106371 0.152404,0.367465 0.245552,0.580209 0.310679,0.709572 0.70249,2.241096 0.881597,3.446011 0.09096,0.611939 0.09364,3.225456 0.004,3.876195 -0.08912,0.646763 -0.336119,1.859833 -0.40481,1.988126 -0.03002,0.05607 -0.129113,0.372861 -0.220204,0.703979 -0.09109,0.331119 -0.24062,0.766276 -0.332286,0.967015 -0.09166,0.20074 -0.208105,0.466517 -0.258754,0.590617 -0.05065,0.124101 -0.138334,0.312668 -0.194855,0.41904 -0.05652,0.106372 -0.248753,0.469002 -0.427182,0.805846 -0.178429,0.336843 -0.341747,0.626948 -0.362929,0.644676 -0.02118,0.01773 -0.171781,0.235307 -0.334664,0.483508 -0.824666,1.256624 -2.0471,2.56726 -3.346271,3.587717 -1.097052,0.8617 -1.139333,0.892785 -1.21436,0.892785 -0.03618,0 -0.114514,0.04873 -0.174073,0.10829 -0.1144,0.1144 -0.221362,0.178749 -0.878176,0.528323 -0.22484,0.119665 -0.418469,0.242959 -0.430288,0.273987 -0.01182,0.03103 -0.04979,0.05641 -0.08439,0.05641 -0.0346,0 -0.300525,0.114319 -0.590953,0.254041 -0.290429,0.139723 -0.644094,0.296935 -0.785923,0.349362 -1.008777,0.372892 -1.360268,0.492598 -1.447424,0.492945 -0.05489,1.93e-4 -0.178497,0.04145 -0.274683,0.09163 -0.09619,0.05018 -0.342775,0.124169 -0.547975,0.16442 -0.2052,0.04025 -0.445618,0.100308 -0.534261,0.133458 -0.08864,0.03315 -0.364242,0.09066 -0.612442,0.127804 -0.248201,0.03714 -0.5238,0.08044 -0.612443,0.09622 -1.308134,0.232811 -4.236084,0.232811 -5.544218,0 -0.08864,-0.01578 -0.364242,-0.05907 -0.612443,-0.09622 -0.2482,-0.03714 -0.5238,-0.09465 -0.612443,-0.127804 -0.08864,-0.03315 -0.325312,-0.09243 -0.525933,-0.131729 -0.295241,-0.05784 -0.4074,-0.05364 -0.588456,0.02201 -0.12303,0.05141 -0.24345,0.125434 -0.2676,0.164509 -0.02415,0.03907 -0.100217,0.07105 -0.169039,0.07105 -0.06882,0 -0.125131,0.02311 -0.125131,0.05136 0,0.02825 -0.239336,0.174961 -0.531858,0.326028 -0.821471,0.424232 -1.388625,0.743695 -1.4767412,0.831811 -0.04408,0.04408 -0.1303,0.08015 -0.19159,0.08015 -0.06129,0 -0.151997,0.04056 -0.20157,0.09013 -0.04957,0.04957 -0.276477,0.183862 -0.504229,0.29842 -0.227753,0.114557 -0.428601,0.226302 -0.44633,0.248321 -0.01773,0.02202 -0.162781,0.107678 -0.322338,0.190352 -0.9210617,0.477239 -1.0656898,0.557776 -1.0852054,0.604301 -0.011819,0.02818 -0.077093,0.05123 -0.1450522,0.05123 -0.1200111,0 -0.1235633,-0.08667 -0.1235633,-3.014707 z M 20.504874,20.643432 c 0.602024,-0.637049 1.631283,-1.726243 2.287241,-2.420432 0.655959,-0.694188 1.613303,-1.709895 2.127433,-2.257125 1.304872,-1.388884 2.00254,-2.128798 2.670233,-2.831923 0.316269,-0.333053 0.519343,-0.58455 0.451274,-0.558884 -0.128253,0.04836 -0.973156,0.515674 -2.013073,1.113423 -0.329978,0.189673 -0.612973,0.34486 -0.628879,0.34486 -0.01591,0 -0.398659,0.208462 -0.850563,0.46325 -0.806995,0.454991 -1.796641,1.000344 -2.433335,1.340909 -0.854322,0.456973 -1.682286,0.921038 -1.737403,0.973795 -0.11721,0.112192 -0.236855,0.05674 -0.538152,-0.249427 -0.498628,-0.506683 -2.906333,-3.006491 -3.477589,-3.610619 l -0.531264,-0.561834 -0.339049,0.356904 c -0.186477,0.196297 -1.209363,1.282639 -2.273079,2.414093 -1.063717,1.131455 -2.485228,2.640655 -3.158916,3.35378 -0.6736872,0.713125 -1.6206202,1.715535 -2.1042972,2.227578 -0.483676,0.512043 -0.9024366,0.953272 -0.9305793,0.980509 -0.028142,0.02724 0.077489,-0.01628 0.2347351,-0.0967 0.1572469,-0.08042 0.3004083,-0.161419 0.3181369,-0.179991 0.017729,-0.01857 0.2208013,-0.131868 0.4512733,-0.251766 0.230472,-0.119898 0.636618,-0.339603 0.902547,-0.488233 0.26593,-0.148631 0.788118,-0.438602 1.1604182,-0.644382 0.372301,-0.205778 0.894489,-0.495962 1.160418,-0.644853 1.318674,-0.738308 1.795015,-0.999211 1.824301,-0.999211 0.01765,0 0.216363,-0.110686 0.441595,-0.245968 0.225232,-0.135283 0.660232,-0.380333 0.966668,-0.544556 l 0.557156,-0.298589 0.408955,0.431738 c 0.224925,0.237456 1.091106,1.140469 1.924848,2.006696 0.833742,0.866227 1.617431,1.682673 1.741531,1.814323 0.1241,0.131652 0.240754,0.235212 0.259231,0.230137 0.01848,-0.0051 0.52616,-0.530451 1.128184,-1.1675 z"
     style="fill:#ffffff;fill-opacity:1" />
</svg>
