<?xml version="1.0" encoding="UTF-8" standalone="no"?>
<svg
   xmlns:dc="http://purl.org/dc/elements/1.1/"
   xmlns:cc="http://creativecommons.org/ns#"
   xmlns:rdf="http://www.w3.org/1999/02/22-rdf-syntax-ns#"
   xmlns:svg="http://www.w3.org/2000/svg"
   xmlns="http://www.w3.org/2000/svg"
   version="1.1"
   width="10mm"
   viewBox="0 0 35.43307 35.43307"
   height="10mm"
   id="svg4874">
  <defs
     id="defs4876">
    <clipPath
       clipPathUnits="userSpaceOnUse"
       id="clipPath40">
      <path
         d="M 0,500 1024,500 1024,0 0,0 0,500 Z"
         id="path42" />
    </clipPath>
  </defs>
  <metadata
     id="metadata4879">
    <rdf:RDF>
      <cc:Work
         rdf:about="">
        <dc:format>image/svg+xml</dc:format>
        <dc:type
           rdf:resource="http://purl.org/dc/dcmitype/StillImage" />
        <dc:title></dc:title>
      </cc:Work>
    </rdf:RDF>
  </metadata>
  <g
     transform="matrix(0.44094599,0,0,0.44094599,26.451229,-38.059676)"
     id="layer1">
    <g
       transform="matrix(0,-1,-1,0,373.51,516.51)"
       id="g4845">
      <g
         transform="matrix(-0.9996,0,0,1,575.94,-611)"
         id="g4778">
        <g
           transform="matrix(-1,0,0,1,576,611)"
           id="g4780">
          <rect
             x="-438"
             y="345.35999"
             width="96.038002"
             height="96"
             transform="scale(-1,1)"
             style="color:#000000;fill:none"
             id="rect4782" />
          <g
             transform="matrix(0,-0.29974,0.29986,0,313.82,623.87)"
             style="opacity:0.98000004;fill:#808080;stroke-width:0.97500002"
             id="g36">
            <g
               clip-path="url(#clipPath40)"
               style="fill:#808080;stroke-width:0.97500002"
               id="g38">
              <g
                 transform="translate(887.72,387.45)"
                 style="fill:#808080;stroke-width:0.97500002"
                 id="g44">
                <path
                   d="m 0,0 -237.43,0 c -8.136,0 -14.73,-6.594 -14.73,-14.73 l 0,-237.43 c 0,-8.135 6.594,-14.731 14.73,-14.731 l 127.83,0 0,103.36 -34.782,0 0,40.28 34.782,0 0,29.705 c 0,34.472 21.054,53.243 51.806,53.243 14.731,0 27.391,-1.096 31.08,-1.586 l 0,-36.026 -21.328,-0.01 c -16.724,0 -19.963,-7.947 -19.963,-19.609 l 0,-25.717 39.887,0 -5.193,-40.28 -34.694,0 0,-103.36 68.012,0 c 8.135,0 14.73,6.596 14.73,14.731 l 0,237.43 C 14.73,-6.584 8.135,0.01 0,0.01"
                   style="fill:#38548b;fill-opacity:1"
                   id="path46" />
              </g>
            </g>
          </g>
        </g>
      </g>
    </g>
  </g>
</svg>
